<mxfile host="app.diagrams.net" modified="2024-07-22T00:50:49.874Z" agent="Mozilla/5.0 (Windows NT 10.0; Win64; x64) AppleWebKit/537.36 (KHTML, like Gecko) Chrome/126.0.0.0 Safari/537.36" etag="isBORoBjiM9O4UP-hXXV" version="24.7.1" type="github">
  <diagram name="ページ1" id="3pcZjZALZxIgy2Gc1AyT">
    <mxGraphModel dx="1562" dy="810" grid="1" gridSize="10" guides="1" tooltips="1" connect="1" arrows="1" fold="1" page="1" pageScale="1" pageWidth="827" pageHeight="1169" math="0" shadow="0">
      <root>
        <mxCell id="0" />
        <mxCell id="1" parent="0" />
        <mxCell id="FZSVYnacqK93bRahXxys-1" value="Cloudflare Pages" style="label;whiteSpace=wrap;html=1;image=data:image/png,iVBORw0KGgoAAAANSUhEUgAAAOEAAADhCAMAAAAJbSJIAAAAhFBMVEX////zgCDydgDzfhv0iz398On0kEr97OPzewv4uJPyeADydQDzfBP96dzzfBLzfhj/+vb+9e/60bf5yav1nmD5wp/84M70ijb4tov728f0jUL85db3q3j1m1r71Lv1l1L3sYP2omn0hi3ybwD2p3H4vpj5xqbzhCj1mFb4tpD3sYb3rX5ZRhf3AAAJSklEQVR4nO2da3erKhCGq6aphTQm6T1td7t7Pd39///v5KaCAs4MCtMs32/psoYn4MgMw3ByMmrUqFGjRo0aNcpTq5vYLRhYZ2/p7eUidiuG1LRIMiEeH2K3YzB9pslWc7m+jN2UYbTcA26UifznInZzBtDTLKm16chl7Ab1rVWaaBKxG9S3FrkOWExjt6hv/Z3rhPld7Bb1rHupAybiT+wm9atFljUI5VnsNvWrx8ZTuHkOYzepX900x2hS/Be7Tf3qtTlGk/w8dpt61Z1oAh6ZoblojdEkSU9jt6pPTYo2YR67UX3qoz1Gk+Ipdqt61GnaBjwuQ/NsGKOJuI/drP50aerCYzI0S8NDuHGBv2K3qz9dzUyExVXsdvWmP8YxmuQfsRvWlxZzI2BkQ3OxnvppUkdE3y2EsorR3GG+bd1L+OpCFH6Sq+peLbe3GqXVJbczzL1FD4gXouUG4DRXZitflnvN/laX2H4Ds7LcG9EbMMnrIOFPy+0tr7kuLzkzWyI7om8v+gOm9Rh9sPZPbWjuja/L4RD9AefKi+7WejNR9fO1rZut8kL0B1TH6Le1e7LX6qJ344TAKR/EW9McGSVljJrc3oMUQzMl/KbFLZlw0ucYXdt/rtrQ2GYETmWTeIT183Vy7TAholoJNvqOXYpImNbRJWfTZTXpQZvSreIRqmPU6PaWLawNDd6UJjEJRT0fNbu9B83eq+seoz6HIsXprbajS2fXiM/qwkTC7q0N5r4Ixc0ZUvWNrpxdk9YpJ9Bb36iIfRF6RFIsbm/12+HzTTTDFZ9wUTif54zwwmZG+O42kPNH/C15EbZX0nQJQjLN0IRLNS/E/uEgm9tb3ZiQEjUs4eo1TW/L2cr9JE2/yk44z1Lx3Jzov3S9xFNCywYl/JCbv2Zy/w5bve0+7NMortLNh0LqXWJ3e8v2rZkRlk6Q3H4s87bk9o12mLdk+oK83e09iGJoBiX8Pgw6sfV4Lg8v3vnPST31TNWc0fPOqTTF0AxKWDrh+b/Nh7sD7m71LzlcLerZGiSwlFI89CEJS6hdHP6z7MPtSJuWfajEr6fdUYKckkE7JGFpOXYJPl3Pocvt9WreoLb0Z29Lv/cIuw/p3v2ZbnmKt7oLTwH+7PyFHeHJ9ZeUr6V5WN1KmZQLRz9zKSeKnXkGBM7Up5YL4eb+6gRuqX44Vec0zQRSo0iGhsm81Lza2+pDUst4ELrd3oOKZ1LLWBBaV9I00QwNC8J2AqlRNEPDgrCdQGpUSsubZUDY5fZWfUhrGQPCdgKpUdQE/fiEhgRSo6gJ+tEJL6ALLNS82eiE4IVHoqGJTmhKILWI2LLIhPB8CnKCfmRCgNt7EDlvNi6hcyVNFzlBPyohzKXYS1Lj6FEJnxD5IuQthzEJQW7vQfS82YiEHStpuugJ+hEJbQmkRtHzZuMR3qPyYehLkvEIE8QY9UnQj0bYuZKmySNBPxbhAy5nyyNBPxYh0O0t5ZGgH4mweyVNl6QXUYhDCHZ7y4Z57ASKQ+hIIDUTTj7OQfpuRxyjEAJW0pqIOVDtCXoMQshKGlVKlnREQshKGlmtlJsIhAi3l6CimZESnhDj9lKUNoxNeEKM20tR1gjKBSfsSCDtQUKf4YUmXMy999Z0KtUmQKEJUW4vUXpyWGBCnNtLlfbGCEyIcnvphKo5DUuIc3upmmnuclBCpNtLlYhnaZBuL1GpnqMZkhDr9tLUTLsJSIjdmUxU88sDEprKBfUvcd342nCEn2HGaCvZPRjhkG6v+tWt1f5ghIO6vZVEewEnFCFmJY0uZYtpaMJmBdKBZNo1FIiwWYF0GO22PcQhHN7t3TXfmHIThhCz2kuXNFZtD0IITCD1VG7eFRWC8CbMGLXUbQ1B2LVvsh+llgW4AITQBFI/zVvh/GCE2JU0oqy7voYnfA3iUjQj3SEJzbUBe9bMXtN0eMIgToWwr4KHsDTDvw1Tx/bZEG+Lweekzh1RIQgvhx6nwpXkHmTW5l1EqgOwGZoJTwjd90NT4W51GN9i0DdGx9bSMIRDhkoNoZkIhCcvKSwdBm92TaGZGISLb1hO0z80YmdBl9i7ghq6wb5Y8peuWzIjxJaZA6T0MSP8izS6NrdXETNC5GNoCc1o4kW4RBY/zgDFTngRIutZppDdXrwIcYbGGprRxIsQZ2hgBXl4EXbWwlJlD81oYkW4xExfZ8BCIKwIUcFxR2hGEytCjKFxhWY0sSJEJC7Ci9WwIkTk9QnwV3AiRBgad2hGEydCuKFpZ83YxYkQnlOEqfrFiRB82EFXaEYTJ0JoWBVXL5kR4QL6GEpUrV1GhFBD0x2a0cSIEGhosLstGRECjwIwZ83YxYgQlgUOCc1o4kO4AA3SLMHWoeVDCNuqINHb1vkQgtZRYaEZTXwIQYaGUCuZD+EaYGhA4cOG+BACHsMZpf4HG0KIoYGGZjSxIQQYGnBoRhMbwp9OQ/Ob6wi3bmDuQppPxoWwe7sCIjSjiQthZxYqJjSjiQthp6GRxPKlbAi7DE2jjABCXAg7ZjSUo6wO4kLY8RhK+vmhTAg7DI14ITdsGEL42Xnlv7sNjRaawR7LN8jZedDzD2W1FevFaWjU0MzqDXm24iDnH0JVl+hw1hNWQzOwWIdVoQmro2+dJ99qG5o8M1VDE1a1Ap2GRg3N+G62DU1Yn0DnGHvz9/pbvGtMBX8Oy/92GRr1YE7vbGoPQsq53Fl1noPD0KihGf8N4R7nclPOVq8P93WcNK6EZtwH6UIU+vj4ypQ6DI1a1Qp0opBLXoAUxMqU2g2NGprxHqOegATEqoaFde+XGprxHqPegHhEWf6j9axxdQrvW6svy70Bt4gFQrPKrtkA1dDMSmLubZB/D+4Q11O41uXROLYdNWpoZjFB3Nn4bb0AEvXHYmg83F5mshgaemiGncyGxiM0w07mQYrLmmEts6GhHtHFUUZD41OjnJ2+TYYmRWbNsNaTwdCgs2ZYywCYzbv/7ffo1OAcAjbd/SIZDI0amjkCnbcNjaCcMM5XbUNDyZrhrBYgKWuGsdrla0hZM4zVMjS0rBnG+mgYGmLWDGNdNZ5D+Iam36JGSUVq1gxfLaZSHabkrBnOOrvLRTVSqYf+ctdqKvcB+yMKzTR18ZOL7KhCM20tLifyiEIzZj0c27t+1KhRo0aNGjUqhv4HqXml6wyOt38AAAAASUVORK5CYII=;strokeColor=#aaaaaa;arcSize=4;" vertex="1" parent="1">
          <mxGeometry x="180" y="320" width="160" height="60" as="geometry" />
        </mxCell>
      </root>
    </mxGraphModel>
  </diagram>
</mxfile>
